<?xml version="1.0" encoding="UTF-8"?>
<svg width="191px" height="206px" viewBox="0 0 191 206" version="1.1" xmlns="http://www.w3.org/2000/svg" xmlns:xlink="http://www.w3.org/1999/xlink">
    <!-- Generator: Sketch 52.6 (67491) - http://www.bohemiancoding.com/sketch -->
    <title>logo</title>
    <desc>Created with Sketch.</desc>
    <defs>
        <rect id="path-1" x="0" y="0" width="185" height="200"></rect>
    </defs>
    <g id="Page-1" stroke="none" stroke-width="1" fill="none" fill-rule="evenodd">
        <g id="logo" transform="translate(3.000000, 3.000000)">
            <rect id="Rectangle" fill="#FFFFFF" x="0" y="0" width="185" height="200"></rect>
            <mask id="mask-2" fill="white">
                <use xlink:href="#path-1"></use>
            </mask>
            <use id="Rectangle" stroke="#FFFFFF" stroke-width="5" fill="#EC5757" xlink:href="#path-1"></use>
            <path d="M48.1818,158 L100.398,158 C126.136,158 140.909,144.25 140.909,125.443 C140.909,108.625 128.693,98.0568 114.602,97.4318 L114.602,96.2955 C127.386,93.625 136.364,84.3636 136.364,71.0682 C136.364,53.5114 122.841,41.6364 96.7045,41.6364 L48.1818,41.6364 L48.1818,158 Z M76.3068,135.33 L76.3068,107.602 L94.2045,107.602 C104.943,107.602 111.534,113.284 111.534,122.205 C111.534,130.443 105.852,135.33 93.6932,135.33 L76.3068,135.33 Z M76.3068,89.4773 L76.3068,63.9659 L92.3295,63.9659 C101.705,63.9659 107.67,68.7955 107.67,76.5227 C107.67,84.7045 101.08,89.4773 91.875,89.4773 L76.3068,89.4773 Z" id="Shape" fill="#FFFFFF" fill-rule="nonzero" mask="url(#mask-2)"></path>
        </g>
    </g>
</svg>